<svg width="172" height="46" viewBox="0 0 172 46" fill="none" xmlns="http://www.w3.org/2000/svg">
<g clip-path="url(#clip0_430_20)">
<path fill-rule="evenodd" clip-rule="evenodd" d="M32.3064 8.85803H13.4379V35.475H32.3064V8.85803ZM10.1907 35.4572V5.60485H35.5596V35.4572H40.9776L45.4492 41.171H41.3088L39.4043 38.7104H6.33421L4.41776 41.171H0.277344L4.74899 35.4572H10.1907Z" fill="white"/>
<path fill-rule="evenodd" clip-rule="evenodd" d="M33.0281 21.7584V23.1425H29.0119C28.8283 23.1425 28.6523 23.0696 28.5225 22.9398C28.3927 22.81 28.3199 22.634 28.3199 22.4504C28.3199 22.2669 28.3927 22.0909 28.5225 21.9611C28.6523 21.8313 28.8283 21.7584 29.0119 21.7584H33.0281Z" fill="white"/>
<path d="M53.1386 13.6905V0.612728H59.5799V13.6905H57.5274V2.48183H55.191V13.6905H53.1386Z" fill="white"/>
<path d="M63.1643 6.91202H64.1403C64.2796 6.92274 64.4195 6.90288 64.5503 6.85383C64.681 6.80479 64.7995 6.72775 64.8974 6.62811C65.0876 6.34679 65.1734 6.00782 65.1399 5.6699V3.71207C65.1735 3.37601 65.0876 3.03886 64.8974 2.75978C64.7983 2.66217 64.6795 2.58686 64.5489 2.53891C64.4183 2.49097 64.279 2.47149 64.1403 2.48178H63.1643V6.91202ZM61.106 13.6905V0.612682H64.1344C64.5542 0.580293 64.9762 0.637935 65.3719 0.781764C65.7677 0.925592 66.1282 1.15229 66.4293 1.44668C66.9827 2.12205 67.2576 2.98297 67.1983 3.85403V5.52794C67.2567 6.39708 66.9817 7.25582 66.4293 7.92938C66.1259 8.21978 65.7648 8.44306 65.3694 8.58471C64.974 8.72636 64.5532 8.7832 64.1344 8.75155H63.1643V13.6668L61.106 13.6905Z" fill="white"/>
<path d="M70.0374 10.674C70.0374 11.5375 70.3923 11.9693 71.108 11.9693C71.8237 11.9693 72.1668 11.5375 72.1668 10.674V3.61754C72.1668 2.76579 71.8119 2.33401 71.108 2.33401C70.4041 2.33401 70.0374 2.76579 70.0374 3.61754V10.674ZM67.979 10.5557V3.75357C67.9247 2.87074 68.2152 2.00129 68.7894 1.32847C69.0938 1.03216 69.4568 0.802792 69.855 0.655089C70.2533 0.507386 70.6781 0.444616 71.1021 0.470818C71.5262 0.443877 71.9511 0.506299 72.3495 0.654042C72.7479 0.801785 73.1109 1.03155 73.4148 1.32847C73.9868 2.00219 74.2752 2.87154 74.2192 3.75357V10.5616C74.2777 11.4439 73.9891 12.3142 73.4148 12.9867C73.1117 13.2848 72.7489 13.5154 72.3503 13.6632C71.9517 13.8111 71.5263 13.8728 71.1021 13.8443C70.678 13.872 70.2528 13.81 69.8543 13.6622C69.4558 13.5144 69.0929 13.2842 68.7894 12.9867C68.2121 12.3133 67.9212 11.4408 67.979 10.5557Z" fill="white"/>
<path d="M75.5441 13.6905V0.612728H77.3777V8.89355L78.123 6.00709L79.8087 0.612728H82.2693V13.6905H80.2169V4.48697L79.3829 7.69875L77.6498 13.6905H75.5441Z" fill="white"/>
<path d="M83.405 10.5674V9.13009H85.4575V10.6857C85.4575 11.5434 85.8124 11.9692 86.5103 11.9692C86.6586 11.9802 86.8074 11.9565 86.945 11.9001C87.0826 11.8436 87.2051 11.7559 87.3029 11.6439C87.513 11.3001 87.6064 10.8976 87.5691 10.4964V9.46724C87.6098 9.01914 87.5017 8.57011 87.2615 8.18963C87.1322 8.05257 86.9734 7.94674 86.7971 7.88013C86.6209 7.81352 86.4318 7.78788 86.2441 7.80516H85.7414V5.93606H86.3329C86.4989 5.94756 86.6655 5.92575 86.8229 5.87192C86.9804 5.81808 87.1255 5.7333 87.2497 5.62257C87.481 5.31845 87.5887 4.93813 87.5513 4.55789V3.83037C87.5947 3.41752 87.5012 3.00186 87.2852 2.64739C87.1886 2.53357 87.0664 2.44423 86.9286 2.38666C86.7909 2.3291 86.6414 2.30494 86.4926 2.31616C85.7828 2.31616 85.422 2.74794 85.422 3.59969V4.67028H83.4228V3.69432C83.3633 2.8144 83.6546 1.94674 84.2331 1.28106C84.5409 0.991066 84.905 0.767398 85.3029 0.623936C85.7007 0.480473 86.1238 0.420271 86.5458 0.447056C86.965 0.418687 87.3855 0.479975 87.7792 0.626842C88.1729 0.773708 88.5307 1.00278 88.8289 1.2988C89.3859 1.98199 89.6647 2.85009 89.6097 3.72981V4.06696C89.6097 5.46878 89.1306 6.36193 88.1783 6.75823C89.1326 7.15255 89.6097 8.06935 89.6097 9.50864V10.5378C89.6647 11.4176 89.3859 12.2857 88.8289 12.9688C88.5307 13.2649 88.1729 13.4939 87.7792 13.6408C87.3855 13.7877 86.965 13.849 86.5458 13.8206C86.1197 13.8461 85.6929 13.7836 85.292 13.6371C84.8911 13.4906 84.5246 13.2631 84.2153 12.9688C83.9245 12.6402 83.7015 12.2573 83.5594 11.8421C83.4173 11.4268 83.3588 10.9876 83.3873 10.5497" fill="white"/>
<path d="M92.9693 5.93605H93.7738C93.9398 5.94857 94.1067 5.92724 94.2643 5.87336C94.4219 5.81947 94.5669 5.73415 94.6906 5.62256C94.9313 5.32515 95.044 4.94432 95.0041 4.56379V3.83035C95.0315 3.47235 94.9468 3.11467 94.7615 2.80707C94.6634 2.69386 94.54 2.60539 94.4012 2.54887C94.2625 2.49234 94.1123 2.46935 93.963 2.48176H92.9693V5.93605ZM92.9693 11.8213H94.1523C94.2984 11.8334 94.4454 11.8138 94.5833 11.7638C94.7211 11.7137 94.8465 11.6345 94.9508 11.5315C95.1561 11.243 95.2506 10.8903 95.217 10.5378V9.39625C95.2593 8.95923 95.1508 8.52089 94.9094 8.15413C94.7758 8.02663 94.6163 7.92945 94.4418 7.86922C94.2672 7.809 94.0817 7.78714 93.898 7.80515H92.9753L92.9693 11.8213ZM90.9169 13.6904V0.612661H94.0163C94.4306 0.576394 94.848 0.623095 95.2441 0.750046C95.6402 0.876996 96.007 1.08165 96.3231 1.35202C96.5897 1.66317 96.7918 2.02418 96.9177 2.41409C97.0436 2.804 97.0908 3.21503 97.0565 3.62333V4.09061C97.0565 5.42737 96.6188 6.30277 95.7316 6.72273C96.7549 7.11902 97.2635 8.04766 97.2635 9.52046V10.5911C97.2916 11.009 97.2359 11.4283 97.0998 11.8244C96.9637 12.2205 96.7499 12.5855 96.4709 12.8979C96.1559 13.1782 95.7879 13.3927 95.3887 13.5289C94.9895 13.665 94.5671 13.7199 94.1464 13.6904H90.9169Z" fill="white"/>
<path d="M100.381 10.674C100.381 11.5375 100.742 11.9693 101.451 11.9693C102.161 11.9693 102.51 11.5375 102.51 10.674V3.61754C102.51 2.76579 102.161 2.33401 101.451 2.33401C100.742 2.33401 100.381 2.76579 100.381 3.61754V10.674ZM98.3282 10.5557V3.75357C98.2714 2.87041 98.5622 2.00004 99.1386 1.32847C99.4425 1.03155 99.8055 0.801785 100.204 0.654042C100.602 0.506299 101.027 0.443877 101.451 0.470818C101.875 0.443877 102.3 0.506299 102.699 0.654042C103.097 0.801785 103.46 1.03155 103.764 1.32847C104.332 2.0043 104.618 2.87266 104.563 3.75357V10.5616C104.62 11.4428 104.334 12.3121 103.764 12.9867C103.461 13.2848 103.098 13.5154 102.7 13.6632C102.301 13.8111 101.875 13.8728 101.451 13.8443C101.028 13.8712 100.603 13.8081 100.206 13.6593C99.808 13.5104 99.4464 13.2792 99.1445 12.9808C98.5638 12.3114 98.2704 11.44 98.3282 10.5557Z" fill="white"/>
<path d="M108.218 11.8214H110.897V2.48183H109.2L108.827 10.0943C108.822 10.4658 108.762 10.8345 108.65 11.1885C108.566 11.4289 108.426 11.6459 108.242 11.8214M105.426 15.4058V11.8214H106.254C106.429 11.6163 106.558 11.3764 106.633 11.1175C106.719 10.7951 106.767 10.4635 106.775 10.1298L107.147 0.612728H112.973V11.8214H113.873V15.4058H111.814V13.6905H107.484V15.4058H105.426Z" fill="white"/>
<path d="M114.837 10.5557V3.75359C114.78 2.87364 115.059 2.0049 115.617 1.32257C115.916 1.02578 116.275 0.79626 116.67 0.649369C117.065 0.502478 117.486 0.441603 117.906 0.470829C118.334 0.444152 118.762 0.506046 119.164 0.652618C119.566 0.79919 119.933 1.02728 120.243 1.32257C120.535 1.6528 120.759 2.03773 120.901 2.45504C121.043 2.87235 121.101 3.31373 121.071 3.75359V5.0312H119.018V3.62346C119.018 2.77172 118.669 2.33993 117.96 2.33993C117.25 2.33993 116.889 2.77171 116.889 3.62937V10.6977C116.889 11.5494 117.25 11.9753 117.96 11.9753C118.669 11.9753 119.018 11.5494 119.018 10.6977V8.82264H121.071V10.5616C121.101 11.0015 121.043 11.4428 120.901 11.8601C120.759 12.2775 120.535 12.6624 120.243 12.9926C119.933 13.2879 119.566 13.516 119.164 13.6626C118.762 13.8092 118.334 13.871 117.906 13.8444C117.486 13.8736 117.065 13.8127 116.67 13.6658C116.275 13.5189 115.916 13.2894 115.617 12.9926C115.058 12.3109 114.779 11.4417 114.837 10.5616" fill="white"/>
<path d="M121.609 2.48183V0.612728H127.962V2.48183H125.815V13.6905H123.756V2.48183H121.609Z" fill="white"/>
<path d="M130.913 5.93613H131.712C131.879 5.9481 132.046 5.92654 132.205 5.8727C132.363 5.81886 132.509 5.73384 132.634 5.62265C132.872 5.32373 132.985 4.9441 132.948 4.56388V3.83044C132.977 3.47154 132.89 3.11281 132.7 2.80716C132.603 2.69404 132.48 2.60557 132.342 2.54901C132.205 2.49245 132.055 2.46943 131.907 2.48185H130.913V5.93613ZM130.913 11.8214H132.096C132.243 11.8336 132.391 11.814 132.53 11.764C132.669 11.714 132.795 11.6347 132.901 11.5316C133.104 11.2423 133.196 10.8896 133.161 10.5379V9.39633C133.205 8.96 133.099 8.52172 132.859 8.15421C132.725 8.02657 132.564 7.92935 132.389 7.86915C132.213 7.80894 132.027 7.78714 131.842 7.80524H130.925L130.913 11.8214ZM128.855 13.6905V0.612748H131.954C132.369 0.577333 132.788 0.62443 133.184 0.751323C133.581 0.878217 133.949 1.0824 134.267 1.35211C134.532 1.66396 134.734 2.02506 134.86 2.41478C134.986 2.80451 135.033 3.21521 135 3.62342V4.0907C135 5.42746 134.557 6.30483 133.67 6.72281C134.693 7.11911 135.207 8.04774 135.207 9.52055V10.5911C135.236 11.009 135.18 11.4283 135.044 11.8245C134.908 12.2206 134.694 12.5855 134.415 12.8979C134.099 13.1785 133.73 13.3931 133.33 13.5292C132.929 13.6653 132.506 13.7201 132.084 13.6905H128.855Z" fill="white"/>
<path d="M138.325 10.674C138.325 11.5375 138.679 11.9693 139.395 11.9693C140.111 11.9693 140.454 11.5375 140.454 10.674V3.61754C140.454 2.76579 140.099 2.33401 139.395 2.33401C138.691 2.33401 138.325 2.76579 138.325 3.61754V10.674ZM136.266 10.5557V3.75357C136.212 2.87074 136.502 2.00129 137.077 1.32847C137.381 1.03216 137.744 0.802792 138.142 0.655089C138.541 0.507386 138.965 0.444616 139.389 0.470818C139.813 0.443877 140.238 0.506299 140.637 0.654042C141.035 0.801785 141.398 1.03155 141.702 1.32847C142.274 2.00219 142.562 2.87154 142.506 3.75357V10.5616C142.565 11.4439 142.276 12.3142 141.702 12.9867C141.399 13.2848 141.036 13.5154 140.637 13.6632C140.239 13.8111 139.813 13.8728 139.389 13.8443C138.965 13.872 138.54 13.81 138.141 13.6622C137.743 13.5144 137.38 13.2842 137.077 12.9867C136.499 12.3133 136.208 11.4408 136.266 10.5557Z" fill="white"/>
<path d="M53.1386 33.3516V20.2738H59.5799V33.3516H57.5274V22.1429H55.191V33.3516H53.1386Z" fill="white"/>
<path d="M63.1643 25.5972H63.9628C64.1298 25.6091 64.2974 25.5876 64.4559 25.5337C64.6144 25.4799 64.7605 25.3949 64.8856 25.2837C65.1234 24.9848 65.2358 24.6051 65.199 24.2249V23.4915C65.228 23.1326 65.141 22.7739 64.9506 22.4682C64.8537 22.3551 64.7313 22.2666 64.5935 22.21C64.4557 22.1535 64.3065 22.1305 64.158 22.1429H63.1643V25.5972ZM63.1643 31.4825H64.3473C64.4943 31.4946 64.6423 31.4751 64.781 31.4251C64.9198 31.375 65.0463 31.2958 65.1517 31.1926C65.3549 30.9034 65.4473 30.5507 65.412 30.1989V29.0574C65.4561 28.621 65.3496 28.1828 65.1103 27.8152C64.9756 27.6876 64.8151 27.5904 64.6396 27.5302C64.4641 27.47 64.2776 27.4482 64.093 27.4663H63.1762L63.1643 31.4825ZM61.106 33.3516V20.2738H64.2053C64.6206 20.2384 65.0387 20.2855 65.4356 20.4124C65.8325 20.5393 66.2004 20.7434 66.5181 21.0131C66.7846 21.3243 66.9867 21.6853 67.1127 22.0752C67.2386 22.4651 67.2858 22.8762 67.2515 23.2845V23.7517C67.2515 25.0885 66.8079 25.9659 65.9207 26.3839C66.9439 26.7801 67.4585 27.7088 67.4585 29.1816V30.2522C67.4866 30.6701 67.4309 31.0894 67.2948 31.4855C67.1587 31.8816 66.9449 32.2466 66.6659 32.559C66.3498 32.8395 65.9808 33.0541 65.5806 33.1902C65.1805 33.3263 64.7571 33.3812 64.3355 33.3516H61.106Z" fill="white"/>
<path d="M68.2215 33.3516L70.5224 26.6086L68.3694 20.2738H70.4277L71.9834 25.118L73.5804 20.2738H75.3903L73.2373 26.6796L75.5264 33.3516H73.468L71.8828 28.454L70.274 33.3516H68.2215Z" fill="white"/>
<path d="M79.6076 33.3516V20.2738H86.0489V33.3516H83.9965V22.1429H81.6601V33.3516H79.6076Z" fill="white"/>
<path d="M89.4619 30.335C89.4619 31.1986 89.8227 31.6304 90.5324 31.6304C91.2422 31.6304 91.5912 31.1986 91.5912 30.335V23.2726C91.5912 22.4209 91.2422 21.9891 90.5324 21.9891C89.8227 21.9891 89.4619 22.4209 89.4619 23.2726V30.335ZM87.4094 30.2167V23.4087C87.3551 22.5259 87.6456 21.6564 88.2197 20.9836C88.5237 20.6867 88.8866 20.4569 89.285 20.3092C89.6834 20.1614 90.1084 20.099 90.5324 20.1259C90.9565 20.099 91.3815 20.1614 91.7799 20.3092C92.1783 20.4569 92.5412 20.6867 92.8452 20.9836C93.415 21.6585 93.7031 22.527 93.6496 23.4087V30.2167C93.7049 31.0987 93.4166 31.9678 92.8452 32.6418C92.5421 32.94 92.1793 33.1705 91.7807 33.3184C91.3821 33.4662 90.9566 33.5279 90.5324 33.4995C90.1083 33.5279 89.6828 33.4662 89.2842 33.3184C88.8856 33.1705 88.5228 32.94 88.2197 32.6418C87.6439 31.9699 87.3532 31.0998 87.4094 30.2167Z" fill="white"/>
<path d="M97.305 31.4825H99.9785V22.1429H98.2632L97.8846 29.7612C97.8793 30.1308 97.8195 30.4975 97.7072 30.8496C97.6254 31.0896 97.4875 31.3065 97.305 31.4825ZM94.4895 35.0669V31.4825H95.3176C95.4883 31.2756 95.6151 31.0361 95.6902 30.7786C95.7767 30.4562 95.8244 30.1245 95.8321 29.7908L96.2048 20.2738H102.037V31.4825H102.93V35.0669H100.878V33.3279H96.5419V35.0432L94.4895 35.0669Z" fill="white"/>
<path d="M105.97 30.335C105.97 31.1986 106.331 31.6304 107.041 31.6304C107.751 31.6304 108.1 31.1986 108.1 30.335V23.2726C108.1 22.4209 107.751 21.9891 107.041 21.9891C106.331 21.9891 105.97 22.4209 105.97 23.2726V30.335ZM103.918 30.2167V23.4087C103.863 22.5259 104.154 21.6564 104.728 20.9836C105.032 20.6867 105.395 20.4569 105.793 20.3092C106.192 20.1614 106.617 20.099 107.041 20.1259C107.465 20.099 107.89 20.1614 108.288 20.3092C108.687 20.4569 109.05 20.6867 109.354 20.9836C109.923 21.6585 110.212 22.527 110.158 23.4087V30.2167C110.213 31.0987 109.925 31.9678 109.354 32.6418C109.051 32.94 108.688 33.1705 108.289 33.3184C107.89 33.4662 107.465 33.5279 107.041 33.4995C106.617 33.5279 106.191 33.4662 105.793 33.3184C105.394 33.1705 105.031 32.94 104.728 32.6418C104.152 31.9699 103.862 31.0998 103.918 30.2167Z" fill="white"/>
<path d="M111.483 33.3516V20.2738H113.541V25.9757L116.227 20.2738H118.279L115.428 26.0999L118.279 33.3516H116.173L114.174 28.1465L113.541 29.3354V33.3516H111.483Z" fill="white"/>
<path d="M121.095 30.335C121.095 31.1986 121.449 31.6304 122.165 31.6304C122.881 31.6304 123.224 31.1986 123.224 30.335V23.2726C123.224 22.4209 122.869 21.9891 122.165 21.9891C121.461 21.9891 121.095 22.4209 121.095 23.2726V30.335ZM119.036 30.2167V23.4087C118.982 22.5259 119.272 21.6564 119.847 20.9836C120.151 20.6873 120.514 20.4579 120.912 20.3102C121.31 20.1625 121.735 20.0997 122.159 20.1259C122.583 20.099 123.008 20.1614 123.407 20.3092C123.805 20.4569 124.168 20.6867 124.472 20.9836C125.044 21.6573 125.332 22.5267 125.276 23.4087V30.2167C125.335 31.0991 125.046 31.9693 124.472 32.6418C124.169 32.94 123.806 33.1705 123.407 33.3184C123.009 33.4662 122.583 33.5279 122.159 33.4995C121.735 33.5272 121.31 33.4651 120.911 33.3173C120.513 33.1695 120.15 32.9393 119.847 32.6418C119.271 31.9699 118.98 31.0998 119.036 30.2167Z" fill="white"/>
<path d="M126.601 33.3516V20.2738H128.66V25.8811H130.996V20.2738H133.049V33.3516H130.996V27.7443H128.66V33.3516H126.601Z" fill="white"/>
<path d="M134.575 33.3516V20.2738H136.633V25.8811H138.963V20.2738H141.022V33.3516H138.963V27.7443H136.633V33.3516H134.575Z" fill="white"/>
<path d="M142.548 33.3516V20.2738H144.381V28.5546L145.127 25.6681L146.807 20.2738H149.273V33.3516H147.221V24.148L146.387 27.3598L144.654 33.3516H142.548Z" fill="white"/>
<path d="M150.521 33.3516V20.2738H152.574V25.9757L155.265 20.2738H157.317L154.46 26.0999L157.317 33.3516H155.212L153.212 28.1465L152.574 29.3354V33.3516H150.521Z" fill="white"/>
<path d="M160.127 30.335C160.127 31.1986 160.488 31.6304 161.197 31.6304C161.907 31.6304 162.256 31.1986 162.256 30.335V23.2726C162.256 22.4209 161.907 21.9891 161.197 21.9891C160.488 21.9891 160.127 22.4209 160.127 23.2726V30.335ZM158.074 30.2167V23.4087C158.02 22.5259 158.311 21.6564 158.885 20.9836C159.189 20.6867 159.552 20.4569 159.95 20.3092C160.348 20.1614 160.773 20.099 161.197 20.1259C161.621 20.099 162.046 20.1614 162.445 20.3092C162.843 20.4569 163.206 20.6867 163.51 20.9836C164.08 21.6585 164.368 22.527 164.315 23.4087V30.2167C164.37 31.0987 164.082 31.9678 163.51 32.6418C163.207 32.94 162.844 33.1705 162.446 33.3184C162.047 33.4662 161.622 33.5279 161.197 33.4995C160.773 33.5279 160.348 33.4662 159.949 33.3184C159.551 33.1705 159.188 32.94 158.885 32.6418C158.309 31.9699 158.018 31.0998 158.074 30.2167Z" fill="white"/>
<path d="M167.692 25.5972H168.496C168.663 25.6091 168.831 25.5876 168.989 25.5337C169.148 25.4799 169.294 25.3949 169.419 25.2837C169.657 24.9848 169.769 24.6051 169.733 24.2249V23.4915C169.762 23.1326 169.675 22.7739 169.484 22.4682C169.387 22.3555 169.265 22.2672 169.127 22.2107C168.989 22.1542 168.84 22.1309 168.692 22.1429H167.692V25.5972ZM167.692 31.4825H168.875C169.022 31.4946 169.17 31.4751 169.309 31.4251C169.447 31.375 169.574 31.2958 169.679 31.1926C169.883 30.9034 169.975 30.5507 169.94 30.1989V29.0574C169.984 28.621 169.877 28.1828 169.638 27.8152C169.503 27.6882 169.342 27.5914 169.167 27.5313C168.991 27.4711 168.805 27.4489 168.621 27.4663H167.698L167.692 31.4825ZM165.64 33.3516V20.2738H168.739C169.154 20.2384 169.572 20.2855 169.969 20.4124C170.366 20.5393 170.734 20.7434 171.052 21.0131C171.317 21.325 171.518 21.6861 171.644 22.0758C171.77 22.4655 171.818 22.8762 171.785 23.2845V23.7517C171.785 25.0885 171.341 25.9659 170.454 26.3839C171.477 26.7801 171.992 27.7088 171.992 29.1816V30.2522C172.021 30.6706 171.965 31.0905 171.828 31.4868C171.69 31.8832 171.475 32.2478 171.194 32.559C170.879 32.8399 170.511 33.0548 170.112 33.1909C169.712 33.3271 169.29 33.3817 168.869 33.3516H165.64Z" fill="white"/>
<path fill-rule="evenodd" clip-rule="evenodd" d="M5.02108 0.470778H40.67V34.2979H37.4168V3.71804H8.27427V34.2979H5.02108V17.3844V0.470778Z" fill="white"/>
<path fill-rule="evenodd" clip-rule="evenodd" d="M18.5661 34.2565H15.3129V10.6443H18.5661V34.2565Z" fill="white"/>
<path fill-rule="evenodd" clip-rule="evenodd" d="M30.0705 12.7619L24.0255 22.4504L30.0705 32.139L31.3955 34.2565H27.5626L20.1927 22.4504L27.5626 10.6443H31.3955L30.0705 12.7619Z" fill="white"/>
<path d="M45.6924 42.3065H0V45.5597H45.6924V42.3065Z" fill="#00AE42"/>
<path d="M171.999 42.3065H53.1392V45.5597H171.999V42.3065Z" fill="#00AE42"/>
</g>
<defs>
<clipPath id="clip0_430_20">
<rect width="172" height="46" fill="white"/>
</clipPath>
</defs>
</svg>
