<svg width="34" height="34" viewBox="0 0 34 34" fill="none" xmlns="http://www.w3.org/2000/svg">
<path fill-rule="evenodd" clip-rule="evenodd" d="M28.0175 6.27583C28.3675 6.12849 28.7507 6.07767 29.1271 6.12867C29.5035 6.17966 29.8593 6.33061 30.1576 6.5658C30.4559 6.80099 30.6856 7.11183 30.823 7.46595C30.9603 7.82007 31.0003 8.20454 30.9386 8.57933L27.7256 28.0684C27.414 29.9483 25.3513 31.0264 23.6272 30.09C22.185 29.3066 20.043 28.0996 18.1164 26.8402C17.153 26.2097 14.2021 24.191 14.5648 22.7545C14.8765 21.5263 19.8348 16.9108 22.6681 14.1667C23.7802 13.0886 23.273 12.4667 21.9598 13.4583C18.6986 15.9205 13.4626 19.6648 11.7315 20.7188C10.2043 21.6481 9.40812 21.8068 8.45612 21.6481C6.71929 21.3591 5.10854 20.9114 3.79387 20.366C2.01737 19.6293 2.10379 17.187 3.79245 16.4758L28.0175 6.27583Z" fill="white"/>
</svg>
