<svg width="34" height="34" viewBox="0 0 34 34" fill="none" xmlns="http://www.w3.org/2000/svg">
<path d="M17.0014 2.83333C24.8257 2.83333 31.1681 9.17575 31.1681 17C31.1681 24.8242 24.8257 31.1667 17.0014 31.1667C14.4978 31.171 12.0382 30.5084 9.87557 29.2471L2.84041 31.1667L4.75574 24.1287C3.49343 21.9653 2.83035 19.5047 2.83474 17C2.83474 9.17575 9.17716 2.83333 17.0014 2.83333ZM12.1734 10.3417L11.8901 10.353C11.7069 10.3656 11.5279 10.4137 11.3631 10.4947C11.2095 10.5818 11.0692 10.6906 10.9466 10.8177C10.7766 10.9777 10.6802 11.1166 10.5768 11.2512C10.0528 11.9324 9.7707 12.7689 9.77499 13.6283C9.77782 14.3225 9.95916 14.9982 10.2425 15.6301C10.8219 16.9079 11.7753 18.2608 13.0333 19.5146C13.3365 19.8163 13.634 20.1195 13.9542 20.4014C15.5174 21.7776 17.3801 22.77 19.3942 23.2999L20.1988 23.4232C20.4609 23.4373 20.723 23.4175 20.9865 23.4047C21.399 23.383 21.8018 23.2713 22.1666 23.0775C22.3519 22.9817 22.533 22.8777 22.7092 22.7658C22.7092 22.7658 22.7691 22.7252 22.8862 22.6383C23.0775 22.4967 23.1951 22.3961 23.3537 22.2303C23.4727 22.1076 23.5719 21.9649 23.6512 21.8025C23.7617 21.5716 23.8722 21.131 23.9176 20.7641C23.9516 20.4836 23.9417 20.3306 23.9374 20.2357C23.9317 20.0841 23.8057 19.9268 23.6682 19.8602L22.8437 19.4905C22.8437 19.4905 21.6112 18.9536 20.8576 18.6107C20.7787 18.5764 20.6942 18.5567 20.6082 18.5527C20.5113 18.5425 20.4133 18.5533 20.3209 18.5844C20.2285 18.6154 20.1439 18.666 20.0727 18.7326C20.0657 18.7297 19.9707 18.8105 18.9465 20.0515C18.8877 20.1305 18.8067 20.1902 18.7139 20.223C18.621 20.2558 18.5205 20.2602 18.4252 20.2357C18.3328 20.2111 18.2424 20.1798 18.1546 20.1422C17.9789 20.0685 17.918 20.0402 17.7976 19.9892C16.9842 19.6349 16.2314 19.1554 15.5663 18.5682C15.3878 18.4124 15.2221 18.2424 15.0521 18.0781C14.4948 17.5443 14.0091 16.9405 13.6071 16.2817L13.5235 16.1472C13.4644 16.0562 13.4159 15.9588 13.379 15.8567C13.3252 15.6485 13.4654 15.4813 13.4654 15.4813C13.4654 15.4813 13.8097 15.1045 13.9697 14.9005C14.1256 14.7022 14.2573 14.5095 14.3423 14.3721C14.5095 14.1029 14.5619 13.8267 14.4741 13.6127C14.0774 12.6437 13.6675 11.6799 13.2444 10.7213C13.1608 10.5315 12.9129 10.3955 12.6877 10.3686C12.6112 10.3591 12.5347 10.3516 12.4582 10.3459C12.2679 10.335 12.0772 10.3369 11.8872 10.3516L12.1734 10.3417Z" fill="white"/>
</svg>
